bicep_curl
version=1
nRows=454
nColumns=3
inDegrees=yes

# SIMM Motion File Header:
name bicep_curl
datacolumns 3
datarows 454
otherdata 1
range 0.0000 0.4530
endheader
time	/jointset/r_shoulder/r_shoulder_elev/value	/jointset/r_elbow/r_elbow_flex/value
0.0000	0.0000	65.1000
0.0010	0.0000	65.1346
0.0020	0.0000	65.1690
0.0030	0.0000	65.2032
0.0040	0.0000	65.2373
0.0050	0.0000	65.2712
0.0060	0.0000	65.3050
0.0070	0.0000	65.3386
0.0080	0.0000	65.3720
0.0090	0.0000	65.4053
0.0100	0.0000	65.4384
0.0110	0.0000	65.4714
0.0120	0.0000	65.5042
0.0130	0.0000	65.5368
0.0140	0.0000	65.5693
0.0150	0.0000	65.6016
0.0160	0.0000	65.6337
0.0170	0.0000	65.6657
0.0180	0.0000	65.6976
0.0190	0.0000	65.7292
0.0200	0.0000	65.7607
0.0210	0.0000	65.7921
0.0220	0.0000	65.8232
0.0230	0.0000	65.8543
0.0240	0.0000	65.8851
0.0250	0.0000	65.9158
0.0260	0.0000	65.9463
0.0270	0.0000	65.9767
0.0280	0.0000	66.0069
0.0290	0.0000	66.0370
0.0300	0.0000	66.0669
0.0310	0.0000	66.0966
0.0320	0.0000	66.1262
0.0330	0.0000	66.1556
0.0340	0.0000	66.1848
0.0350	0.0000	66.2139
0.0360	0.0000	66.2428
0.0370	0.0000	66.2716
0.0380	0.0000	66.3002
0.0390	0.0000	66.3286
0.0400	0.0000	66.3569
0.0410	0.0000	66.3850
0.0420	0.0000	66.4129
0.0430	0.0000	66.4407
0.0440	0.0000	66.4684
0.0450	0.0000	66.4958
0.0460	0.0000	66.5231
0.0470	0.0000	66.5503
0.0480	0.0000	66.5773
0.0490	0.0000	66.6041
0.0500	0.0000	66.6307
0.0510	0.0000	66.6572
0.0520	0.0000	66.6836
0.0530	0.0000	66.7098
0.0540	0.0000	66.7358
0.0550	0.0000	66.7616
0.0560	0.0000	66.7873
0.0570	0.0000	66.8128
0.0580	0.0000	66.8382
0.0590	0.0000	66.8634
0.0600	0.0000	66.8885
0.0610	0.0000	66.9133
0.0620	0.0000	66.9381
0.0630	0.0000	66.9626
0.0640	0.0000	66.9870
0.0650	0.0000	67.0113
0.0660	0.0000	67.0353
0.0670	0.0000	67.0593
0.0680	0.0000	67.0830
0.0690	0.0000	67.1066
0.0700	0.0000	67.1300
0.0710	0.0000	67.1533
0.0720	0.0000	67.1764
0.0730	0.0000	67.1994
0.0740	0.0000	67.2222
0.0750	0.0000	67.2448
0.0760	0.0000	67.2672
0.0770	0.0000	67.2895
0.0780	0.0000	67.3117
0.0790	0.0000	67.3337
0.0800	0.0000	67.3555
0.0810	0.0000	67.3771
0.0820	0.0000	67.3986
0.0830	0.0000	67.4200
0.0840	0.0000	67.4411
0.0850	0.0000	67.4621
0.0860	0.0000	67.4830
0.0870	0.0000	67.5037
0.0880	0.0000	67.5242
0.0890	0.0000	67.5446
0.0900	0.0000	67.5648
0.0910	0.0000	67.5848
0.0920	0.0000	67.6047
0.0930	0.0000	67.6244
0.0940	0.0000	67.6440
0.0950	0.0000	67.6634
0.0960	0.0000	67.6826
0.0970	0.0000	67.7017
0.0980	0.0000	67.7206
0.0990	0.0000	67.7393
0.1000	0.0000	67.7579
0.1010	0.0000	67.7764
0.1020	0.0000	67.7946
0.1030	0.0000	67.8127
0.1040	0.0000	67.8307
0.1050	0.0000	67.8485
0.1060	0.0000	67.8661
0.1070	0.0000	67.8835
0.1080	0.0000	67.9008
0.1090	0.0000	67.9180
0.1100	0.0000	67.9349
0.1110	0.0000	67.9518
0.1120	0.0000	67.9684
0.1130	0.0000	67.9849
0.1140	0.0000	68.0012
0.1150	0.0000	68.0174
0.1160	0.0000	68.0334
0.1170	0.0000	68.0492
0.1180	0.0000	68.0649
0.1190	0.0000	68.0804
0.1200	0.0000	68.0958
0.1210	0.0000	68.1110
0.1220	0.0000	68.1260
0.1230	0.0000	68.1409
0.1240	0.0000	68.1556
0.1250	0.0000	68.1702
0.1260	0.0000	68.1846
0.1270	0.0000	68.1988
0.1280	0.0000	68.2129
0.1290	0.0000	68.2268
0.1300	0.0000	68.2405
0.1310	0.0000	68.2541
0.1320	0.0000	68.2675
0.1330	0.0000	68.2808
0.1340	0.0000	68.2939
0.1350	0.0000	68.3068
0.1360	0.0000	68.3196
0.1370	0.0000	68.3322
0.1380	0.0000	68.3447
0.1390	0.0000	68.3570
0.1400	0.0000	68.3691
0.1410	0.0000	68.3811
0.1420	0.0000	68.3929
0.1430	0.0000	68.4046
0.1440	0.0000	68.4160
0.1450	0.0000	68.4274
0.1460	0.0000	68.4385
0.1470	0.0000	68.4495
0.1480	0.0000	68.4604
0.1490	0.0000	68.4710
0.1500	0.0000	68.4816
0.1510	0.0000	68.4919
0.1520	0.0000	68.5021
0.1530	0.0000	68.5122
0.1540	0.0000	68.5220
0.1550	0.0000	68.5317
0.1560	0.0000	68.5413
0.1570	0.0000	68.5507
0.1580	0.0000	68.5599
0.1590	0.0000	68.5690
0.1600	0.0000	68.5779
0.1610	0.0000	68.5866
0.1620	0.0000	68.5952
0.1630	0.0000	68.6036
0.1640	0.0000	68.6119
0.1650	0.0000	68.6200
0.1660	0.0000	68.6279
0.1670	0.0000	68.6357
0.1680	0.0000	68.6433
0.1690	0.0000	68.6507
0.1700	0.0000	68.6580
0.1710	0.0000	68.6652
0.1720	0.0000	68.6721
0.1730	0.0000	68.6789
0.1740	0.0000	68.6856
0.1750	0.0000	68.6921
0.1760	0.0000	68.6984
0.1770	0.0000	68.7045
0.1780	0.0000	68.7105
0.1790	0.0000	68.7164
0.1800	0.0000	68.7220
0.1810	0.0000	68.7276
0.1820	0.0000	68.7329
0.1830	0.0000	68.7381
0.1840	0.0000	68.7431
0.1850	0.0000	68.7480
0.1860	0.0000	68.7527
0.1870	0.0000	68.7573
0.1880	0.0000	68.7616
0.1890	0.0000	68.7659
0.1900	0.0000	68.7699
0.1910	0.0000	68.7738
0.1920	0.0000	68.7776
0.1930	0.0000	68.7811
0.1940	0.0000	68.7845
0.1950	0.0000	68.7878
0.1960	0.0000	68.7909
0.1970	0.0000	68.7938
0.1980	0.0000	68.7966
0.1990	0.0000	68.7992
0.2000	0.0000	68.8017
0.2010	0.0000	68.8039
0.2020	0.0000	68.8061
0.2030	0.0000	68.8080
0.2040	0.0000	68.8098
0.2050	0.0000	68.8115
0.2060	0.0000	68.8129
0.2070	0.0000	68.8143
0.2080	0.0000	68.8154
0.2090	0.0000	68.8164
0.2100	0.0000	68.8172
0.2110	0.0000	68.8179
0.2120	0.0000	68.8184
0.2130	0.0000	68.8188
0.2140	0.0000	68.8190
0.2150	0.0000	68.8190
0.2160	0.0000	68.8188
0.2170	0.0000	68.8186
0.2180	0.0000	68.8181
0.2190	0.0000	68.8175
0.2200	0.0000	68.8167
0.2210	0.0000	68.8157
0.2220	0.0000	68.8146
0.2230	0.0000	68.8134
0.2240	0.0000	68.8120
0.2250	0.0000	68.8104
0.2260	0.0000	68.8086
0.2270	0.0000	68.8067
0.2280	0.0000	68.8046
0.2290	0.0000	68.8024
0.2300	0.0000	68.8000
0.2310	0.0000	68.7974
0.2320	0.0000	68.7947
0.2330	0.0000	68.7918
0.2340	0.0000	68.7888
0.2350	0.0000	68.7856
0.2360	0.0000	68.7822
0.2370	0.0000	68.7787
0.2380	0.0000	68.7750
0.2390	0.0000	68.7712
0.2400	0.0000	68.7672
0.2410	0.0000	68.7630
0.2420	0.0000	68.7587
0.2430	0.0000	68.7542
0.2440	0.0000	68.7495
0.2450	0.0000	68.7447
0.2460	0.0000	68.7397
0.2470	0.0000	68.7346
0.2480	0.0000	68.7293
0.2490	0.0000	68.7238
0.2500	0.0000	68.7182
0.2510	0.0000	68.7124
0.2520	0.0000	68.7065
0.2530	0.0000	68.7003
0.2540	0.0000	68.6941
0.2550	0.0000	68.6876
0.2560	0.0000	68.6811
0.2570	0.0000	68.6743
0.2580	0.0000	68.6674
0.2590	0.0000	68.6603
0.2600	0.0000	68.6531
0.2610	0.0000	68.6457
0.2620	0.0000	68.6381
0.2630	0.0000	68.6304
0.2640	0.0000	68.6225
0.2650	0.0000	68.6145
0.2660	0.0000	68.6062
0.2670	0.0000	68.5979
0.2680	0.0000	68.5893
0.2690	0.0000	68.5807
0.2700	0.0000	68.5718
0.2710	0.0000	68.5628
0.2720	0.0000	68.5536
0.2730	0.0000	68.5443
0.2740	0.0000	68.5348
0.2750	0.0000	68.5251
0.2760	0.0000	68.5153
0.2770	0.0000	68.5053
0.2780	0.0000	68.4952
0.2790	0.0000	68.4849
0.2800	0.0000	68.4744
0.2810	0.0000	68.4638
0.2820	0.0000	68.4530
0.2830	0.0000	68.4420
0.2840	0.0000	68.4309
0.2850	0.0000	68.4196
0.2860	0.0000	68.4082
0.2870	0.0000	68.3966
0.2880	0.0000	68.3849
0.2890	0.0000	68.3729
0.2900	0.0000	68.3609
0.2910	0.0000	68.3486
0.2920	0.0000	68.3362
0.2930	0.0000	68.3236
0.2940	0.0000	68.3109
0.2950	0.0000	68.2980
0.2960	0.0000	68.2850
0.2970	0.0000	68.2718
0.2980	0.0000	68.2584
0.2990	0.0000	68.2449
0.3000	0.0000	68.2312
0.3010	0.0000	68.2173
0.3020	0.0000	68.2033
0.3030	0.0000	68.1891
0.3040	0.0000	68.1748
0.3050	0.0000	68.1603
0.3060	0.0000	68.1456
0.3070	0.0000	68.1308
0.3080	0.0000	68.1158
0.3090	0.0000	68.1006
0.3100	0.0000	68.0853
0.3110	0.0000	68.0699
0.3120	0.0000	68.0542
0.3130	0.0000	68.0384
0.3140	0.0000	68.0225
0.3150	0.0000	68.0064
0.3160	0.0000	67.9901
0.3170	0.0000	67.9737
0.3180	0.0000	67.9571
0.3190	0.0000	67.9403
0.3200	0.0000	67.9234
0.3210	0.0000	67.9063
0.3220	0.0000	67.8890
0.3230	0.0000	67.8716
0.3240	0.0000	67.8541
0.3250	0.0000	67.8363
0.3260	0.0000	67.8184
0.3270	0.0000	67.8004
0.3280	0.0000	67.7822
0.3290	0.0000	67.7638
0.3300	0.0000	67.7453
0.3310	0.0000	67.7266
0.3320	0.0000	67.7077
0.3330	0.0000	67.6887
0.3340	0.0000	67.6695
0.3350	0.0000	67.6501
0.3360	0.0000	67.6306
0.3370	0.0000	67.6110
0.3380	0.0000	67.5911
0.3390	0.0000	67.5711
0.3400	0.0000	67.5510
0.3410	0.0000	67.5307
0.3420	0.0000	67.5102
0.3430	0.0000	67.4896
0.3440	0.0000	67.4688
0.3450	0.0000	67.4478
0.3460	0.0000	67.4267
0.3470	0.0000	67.4054
0.3480	0.0000	67.3840
0.3490	0.0000	67.3624
0.3500	0.0000	67.3406
0.3510	0.0000	67.3187
0.3520	0.0000	67.2966
0.3530	0.0000	67.2743
0.3540	0.0000	67.2519
0.3550	0.0000	67.2293
0.3560	0.0000	67.2066
0.3570	0.0000	67.1837
0.3580	0.0000	67.1607
0.3590	0.0000	67.1374
0.3600	0.0000	67.1141
0.3610	0.0000	67.0905
0.3620	0.0000	67.0668
0.3630	0.0000	67.0429
0.3640	0.0000	67.0189
0.3650	0.0000	66.9947
0.3660	0.0000	66.9704
0.3670	0.0000	66.9459
0.3680	0.0000	66.9212
0.3690	0.0000	66.8964
0.3700	0.0000	66.8714
0.3710	0.0000	66.8462
0.3720	0.0000	66.8209
0.3730	0.0000	66.7954
0.3740	0.0000	66.7698
0.3750	0.0000	66.7440
0.3760	0.0000	66.7180
0.3770	0.0000	66.6919
0.3780	0.0000	66.6656
0.3790	0.0000	66.6392
0.3800	0.0000	66.6126
0.3810	0.0000	66.5858
0.3820	0.0000	66.5589
0.3830	0.0000	66.5318
0.3840	0.0000	66.5045
0.3850	0.0000	66.4771
0.3860	0.0000	66.4495
0.3870	0.0000	66.4218
0.3880	0.0000	66.3939
0.3890	0.0000	66.3658
0.3900	0.0000	66.3376
0.3910	0.0000	66.3092
0.3920	0.0000	66.2807
0.3930	0.0000	66.2519
0.3940	0.0000	66.2231
0.3950	0.0000	66.1940
0.3960	0.0000	66.1649
0.3970	0.0000	66.1355
0.3980	0.0000	66.1060
0.3990	0.0000	66.0763
0.4000	0.0000	66.0465
0.4010	0.0000	66.0165
0.4020	0.0000	65.9863
0.4030	0.0000	65.9560
0.4040	0.0000	65.9255
0.4050	0.0000	65.8949
0.4060	0.0000	65.8641
0.4070	0.0000	65.8331
0.4080	0.0000	65.8020
0.4090	0.0000	65.7707
0.4100	0.0000	65.7392
0.4110	0.0000	65.7076
0.4120	0.0000	65.6758
0.4130	0.0000	65.6439
0.4140	0.0000	65.6118
0.4150	0.0000	65.5795
0.4160	0.0000	65.5471
0.4170	0.0000	65.5145
0.4180	0.0000	65.4818
0.4190	0.0000	65.4489
0.4200	0.0000	65.4158
0.4210	0.0000	65.3826
0.4220	0.0000	65.3492
0.4230	0.0000	65.3157
0.4240	0.0000	65.2820
0.4250	0.0000	65.2481
0.4260	0.0000	65.2141
0.4270	0.0000	65.1799
0.4280	0.0000	65.1455
0.4290	0.0000	65.1110
0.4300	0.0000	65.0763
0.4310	0.0000	65.0415
0.4320	0.0000	65.0065
0.4330	0.0000	64.9713
0.4340	0.0000	64.9360
0.4350	0.0000	64.9005
0.4360	0.0000	64.8648
0.4370	0.0000	64.8290
0.4380	0.0000	64.7931
0.4390	0.0000	64.7569
0.4400	0.0000	64.7206
0.4410	0.0000	64.6842
0.4420	0.0000	64.6476
0.4430	0.0000	64.6108
0.4440	0.0000	64.5738
0.4450	0.0000	64.5367
0.4460	0.0000	64.4995
0.4470	0.0000	64.4620
0.4480	0.0000	64.4245
0.4490	0.0000	64.3867
0.4500	0.0000	64.3488
0.4510	0.0000	64.3107
0.4520	0.0000	64.2725
0.4530	0.0000	64.2341
